<svg xmlns="http://www.w3.org/2000/svg" xmlns:svg="http://www.w3.org/2000/svg" xmlns:xlink="http://www.w3.org/1999/xlink" version="1.0" height="1309.9999999999995pt" width="357.5pt" viewBox="-282.5 -452.99999999999943 365.5 1315.9999999999995" ><defs><style type="text/css">
            @font-face {
                font-family: 'lt_regular';
                src: url('https://app.creately.com/diagram/assets/fonts/lato/lt-regular-webfont.woff2') format('woff2'),
                    url('https://app.creately.com/diagram/assets/fonts/lato/lt-regular-webfont.woff') format('woff');
                font-weight: normal;
                font-style: normal;
            }
            @font-face {
                font-family: 'noto_regular';
                src: url('https://app.creately.com/diagram/assets/fonts/noto/noto-regular.woff') format('woff'),
                     url('https://app.creately.com/diagram/assets/fonts/noto/noto-regular.woff2') format('woff2');
                font-weight: normal;
                font-style: normal;
            }
        p {
            margin: 0;
        }
        </style></defs><defs><style>
            span{ display: inline-block; }
        </style></defs><g id="Rx0uokXbuGE"><g transform="translate(-267.5 -449.99999999999943)"><path d="M 20,40 L 20,40 L 20,40 A 20 20 0 0 1 0 20.000000000000004 L 0,20 L 0,20.000000000000004 A 20 20 0 0 1 20 0 L 80,0 L 80,0 L 80,0 A 20 20 0 0 1 100 20 L 100,20 L 100,20 A 20 20 0 0 1 80 40 L 20,40 Z" fill="rgb(208,94,86)" stroke="#f77474" stroke-width="2" stroke-linecap="round" stroke-linejoin="round"/></g><g transform="translate(-231.635, -439.1999999999994) rotate(0, 14.135, 9.2)" width="28.27" height="18.4"><text text-decoration="none" x="0.1349999999999998" fill="#ffffff" font-size="10pt" font-family="lt_regular"  y="17">Start</text><text text-decoration="none" x="28.134999999999998" fill="#4b4b4b" font-size="10pt" font-family="noto_regular"  y="17"></text></g></g><g id="jLqzerf0pYf"><g transform="translate(-277.5 -339.99999999999943)"><rect x="0" y="0" width="120" height="60" fill="rgb(68,141,122)" stroke="#24afaf" stroke-width="2" stroke-linecap="round" stroke-linejoin="round"/></g><g transform="translate(-231.23, -319.1999999999994) rotate(0, 13.73, 9.2)" width="27.46" height="18.4"><text text-decoration="none" x="0" fill="#ffffff" font-size="10pt" font-family="lt_regular"  y="17">User</text><text text-decoration="none" x="28" fill="#4b4b4b" font-size="10pt" font-family="noto_regular"  y="17"></text></g></g><g id="Bz2eR5HD7Da"><g><path d="M -217.5,-409.99999999999943 L -217.5,-339.99999999999943" fill="none" stroke="#7E7E7E" stroke-width="2" stroke-linecap="round" stroke-linejoin="round"/><path d="M -217.5,-339.99999999999943 L -211.75,-348.6956521739125 L -223.25,-348.6956521739125 Z" fill="rgb(126,126,126)" stroke="#7E7E7E" stroke-width="2" stroke-linecap="round" stroke-linejoin="round"/></g></g><g id="4QIHymreMkI"><g transform="translate(-277.5 -229.99999999999943)"><path d="M 60,0 L 0,40 L 60,80 L 120,40 L 60,0 Z" fill="rgb(216,160,39)" stroke="#4b4b4b" stroke-width="2" stroke-linecap="round" stroke-linejoin="round"/></g><g transform="translate(-233.48, -199.19999999999942) rotate(0, 15.98, 9.2)" width="31.96" height="18.4"><text text-decoration="none" x="0.4800000000000004" fill="#ffffff" font-size="10pt" font-family="lt_regular"  y="17">Login</text><text text-decoration="none" x="31.48" fill="#4b4b4b" font-size="10pt" font-family="noto_regular"  y="17"></text></g></g><g id="cgMEVaszY7X"><g><path d="M -217.5,-279.99999999999943 L -217.5,-229.99999999999943" fill="none" stroke="#7E7E7E" stroke-width="2" stroke-linecap="round" stroke-linejoin="round"/><path d="M -217.5,-229.99999999999943 L -211.75,-238.69565217391246 L -223.25,-238.69565217391246 Z" fill="rgb(126,126,126)" stroke="#7E7E7E" stroke-width="2" stroke-linecap="round" stroke-linejoin="round"/></g></g><g id="bCoIziIPEim"><mask id="2b707" x="-231" y="-164" width="85" height="148" maskUnits="userSpaceOnUse"><rect x="-231" y="-164" width="85" height="148" fill="white" /><rect x="-231.09979062682197" y="-73.45024956272272" width="27.46" height="24.4" fill="black" /></mask><g mask="url(#2b707)"><path d="M -217,-150 L -217.45833369501844,-39.999913195574706 Q -217.5,-30 -207.5,-30 L -160,-30" fill="none" stroke="#7E7E7E" stroke-width="2" stroke-linecap="round" stroke-linejoin="round"/><path d="M -160,-30 L -168.69565217391303,-35.75 L -168.69565217391303,-24.25 Z" fill="rgb(126,126,126)" stroke="#7E7E7E" stroke-width="2" stroke-linecap="round" stroke-linejoin="round"/></g><g transform="translate(-228.09979062682197, -70.45024956272272)" width="21.46" height="18.4"><text text-decoration="none" x="0.7300000000000004" fill="#4b4b4b" font-size="10pt" font-family="noto_regular"  y="17">Yes</text><text text-decoration="none" x="20.73" fill="#4b4b4b" font-size="10pt" font-family="noto_regular"  y="17"></text></g></g><g id="fVLDke4em5h"><g transform="translate(-89.99999999999977 -220.00000000000006)"><rect x="0" y="0" width="120" height="60" fill="rgb(68,141,122)" stroke="#24afaf" stroke-width="2" stroke-linecap="round" stroke-linejoin="round"/></g><g transform="translate(-53.96999999999977, -199.20000000000005) rotate(0, 23.97, 9.2)" width="47.94" height="18.4"><text text-decoration="none" x="0" fill="#ffffff" font-size="10pt" font-family="lt_regular"  y="17">Register</text><text text-decoration="none" x="48" fill="#4b4b4b" font-size="10pt" font-family="noto_regular"  y="17"></text></g></g><g id="uuz5kOSAagE"><mask id="2a99b" x="-171" y="-204" width="95" height="28" maskUnits="userSpaceOnUse"><rect x="-171" y="-204" width="95" height="28" fill="white" /><rect x="-135.8550000000001" y="-202.20000000000005" width="24.21" height="24.4" fill="black" /></mask><g mask="url(#2a99b)"><path d="M -157,-190 L -133.7499999999999,-189.9999999999996 Q -133.49999999999977,-189.9999999999996 -124,-190 Q -114,-190.00000000000003 -113.74999999999989,-190.00000000000003 L -90,-190" fill="none" stroke="#7E7E7E" stroke-width="2" stroke-linecap="round" stroke-linejoin="round"/><path d="M -90,-190 L -98.69565217391305,-195.75 L -98.69565217391305,-184.25 Z" fill="rgb(126,126,126)" stroke="#7E7E7E" stroke-width="2" stroke-linecap="round" stroke-linejoin="round"/></g><g transform="translate(-132.8550000000001, -199.20000000000005)" width="18.21" height="18.4"><text text-decoration="none" x="0.10500000000000043" fill="#4b4b4b" font-size="10pt" font-family="noto_regular"  y="17">No</text><text text-decoration="none" x="18.105" fill="#4b4b4b" font-size="10pt" font-family="noto_regular"  y="17"></text></g></g><g id="jltM8ivaZab"><g><path d="M -217,-262 L -29.999999999999773,-262 L -30,-220" fill="none" stroke="#7E7E7E" stroke-width="2" stroke-linecap="round" stroke-linejoin="round"/><path d="M -217,-262 L -208.30434782608697,-256.25 L -208.30434782608697,-267.75 Z" fill="rgb(126,126,126)" stroke="#7E7E7E" stroke-width="2" stroke-linecap="round" stroke-linejoin="round"/><path d="M -30,-220 L -24.25,-228.69565217391303 L -35.75,-228.69565217391303 Z" fill="rgb(126,126,126)" stroke="#7E7E7E" stroke-width="2" stroke-linecap="round" stroke-linejoin="round"/></g></g><g id="szvxyBuPU1p"><g transform="translate(-160 -60)"><rect x="0" y="0" width="140" height="60" fill="rgb(95,178,212)" stroke="#0979A7" stroke-width="2" stroke-linecap="round" stroke-linejoin="round"/></g><g transform="translate(-137.61, -39.2) rotate(0, 47.61, 9.2)" width="95.22" height="18.4"><text text-decoration="none" x="2.1099999999999994" fill="#ffffff" font-size="10pt" font-family="noto_regular"  y="17">Search&#160;</text><text text-decoration="none" x="45.11" fill="#ffffff" font-size="10pt" font-family="noto_regular"  y="17">Product</text><text text-decoration="none" x="93.11" fill="#4b4b4b" font-size="10pt" font-family="noto_regular"  y="17"></text></g></g><g id="yRwIJngoKf7"><g transform="translate(-160 30)"><rect x="0" y="0" width="140" height="60" fill="rgb(95,178,212)" stroke="#0979A7" stroke-width="2" stroke-linecap="round" stroke-linejoin="round"/></g><g transform="translate(-131.095, 50.8) rotate(0, 41.095, 9.2)" width="82.19" height="18.4"><text text-decoration="none" x="1.5949999999999989" fill="#ffffff" font-size="10pt" font-family="noto_regular"  y="17">View&#160;</text><text text-decoration="none" x="32.595" fill="#ffffff" font-size="10pt" font-family="noto_regular"  y="17">Product</text><text text-decoration="none" x="80.595" fill="#4b4b4b" font-size="10pt" font-family="noto_regular"  y="17"></text></g></g><g id="j05qSClXGrr"><g transform="translate(-160 120)"><rect x="0" y="0" width="140" height="60" fill="rgb(95,178,212)" stroke="#0979A7" stroke-width="2" stroke-linecap="round" stroke-linejoin="round"/></g><g transform="translate(-131.085, 131.6) rotate(0, 41.085, 18.4)" width="82.17" height="36.8"><text text-decoration="none" x="1.5850000000000009" fill="#ffffff" font-size="10pt" font-family="noto_regular"  y="14">Buy&#160;</text><text text-decoration="none" x="27.585" fill="#ffffff" font-size="10pt" font-family="noto_regular"  y="14">Product/</text><text text-decoration="none" x="80.58500000000001" fill="#ffffff" font-size="10pt" font-family="noto_regular"  y="14"></text><text text-decoration="none" x="7.085000000000001" fill="#ffffff" font-size="10pt" font-family="noto_regular"  y="36">Add&#160;</text><text text-decoration="none" x="34.085" fill="#ffffff" font-size="10pt" font-family="noto_regular"  y="36">to&#160;</text><text text-decoration="none" x="50.085" fill="#ffffff" font-size="10pt" font-family="noto_regular"  y="36">Cart</text><text text-decoration="none" x="75.08500000000001" fill="#4b4b4b" font-size="10pt" font-family="noto_regular"  y="36"></text></g></g><g id="ei4cGc61XlQ"><g><path d="M -217,-150 L -217.4763712656632,51.60620075540011 Q -217.5,61.606172839506826 -207.50023454725994,61.67466291313901 L -160,62" fill="none" stroke="#7E7E7E" stroke-width="2" stroke-linecap="round" stroke-linejoin="round"/><path d="M -160,62 L -168.69565217391303,56.25 L -168.69565217391303,67.75 Z" fill="rgb(126,126,126)" stroke="#7E7E7E" stroke-width="2" stroke-linecap="round" stroke-linejoin="round"/></g></g><g id="BYeTWSEMOTf"><g><path d="M -217,-150 L -217.48333335648144,140.00001388885994 Q -217.5,150 -207.5,150 L -160,150" fill="none" stroke="#7E7E7E" stroke-width="2" stroke-linecap="round" stroke-linejoin="round"/><path d="M -160,150 L -168.69565217391303,144.25 L -168.69565217391303,155.75 Z" fill="rgb(126,126,126)" stroke="#7E7E7E" stroke-width="2" stroke-linecap="round" stroke-linejoin="round"/></g></g><g id="YmSnUgRtLBP"><g transform="translate(-149.99999999999977 240)"><path d="M 60,0 L 0,40 L 60,80 L 120,40 L 60,0 Z" fill="rgb(216,160,39)" stroke="#4b4b4b" stroke-width="2" stroke-linecap="round" stroke-linejoin="round" stroke-dasharray="0 0"/></g><g transform="translate(-133.94999999999976, 270.8) rotate(0, 43.95, 9.2)" width="87.9" height="18.4"><text text-decoration="none" x="0.9500000000000028" fill="#ffffff" font-size="10pt" font-family="lt_regular"  y="17">Make&#160;</text><text text-decoration="none" x="35.95" fill="#ffffff" font-size="10pt" font-family="lt_regular"  y="17">Payment</text><text text-decoration="none" x="86.95" fill="#4b4b4b" font-size="10pt" font-family="noto_regular"  y="17"></text></g></g><g id="Yc4oraDIAAh"><g><path d="M -90,180 L -90,200 Q -90,200 -90,210 Q -89.99999999999984,219.99999999999977 -89.99999999999984,220 L -90,240" fill="none" stroke="#7E7E7E" stroke-width="2" stroke-linecap="round" stroke-linejoin="round"/><path d="M -90,240 L -84.25,231.30434782608697 L -95.75,231.30434782608697 Z" fill="rgb(126,126,126)" stroke="#7E7E7E" stroke-width="2" stroke-linecap="round" stroke-linejoin="round"/></g></g><g id="lkSX1P7VeH4"><g transform="translate(-150 400)"><rect x="0" y="0" width="120" height="60" fill="rgb(131,48,74)" stroke="#530920" stroke-width="2" stroke-linecap="round" stroke-linejoin="round" stroke-dasharray="0 0"/></g><g transform="translate(-134.38, 420.8) rotate(0, 44.38, 9.2)" width="88.76" height="18.4"><text text-decoration="none" x="1.3800000000000026" fill="#ffffff" font-size="10pt" font-family="noto_regular"  y="17">Payment&#160;</text><text text-decoration="none" x="58.38" fill="#ffffff" font-size="10pt" font-family="noto_regular"  y="17">Type</text><text text-decoration="none" x="87.38" fill="#4b4b4b" font-size="10pt" font-family="noto_regular"  y="17"></text></g></g><g id="zjesGNb2RpV"><mask id="22b0f" x="-104" y="306" width="28" height="108" maskUnits="userSpaceOnUse"><rect x="-104" y="306" width="28" height="108" fill="white" /><rect x="-103.72999999999989" y="347.8" width="27.46" height="24.4" fill="black" /></mask><g mask="url(#22b0f)"><path d="M -90,320 L -89.99999999999983,350 Q -89.99999999999983,350.0000000000002 -90,360 Q -90,370 -90,370 L -90,400" fill="none" stroke="#7E7E7E" stroke-width="2" stroke-linecap="round" stroke-linejoin="round"/><path d="M -90,400 L -84.25,391.30434782608694 L -95.75,391.30434782608694 Z" fill="rgb(126,126,126)" stroke="#7E7E7E" stroke-width="2" stroke-linecap="round" stroke-linejoin="round"/></g><g transform="translate(-100.72999999999989, 350.8)" width="21.46" height="18.4"><text text-decoration="none" x="0.7300000000000004" fill="#4b4b4b" font-size="10pt" font-family="noto_regular"  y="17">Yes</text><text text-decoration="none" x="20.73" fill="#4b4b4b" font-size="10pt" font-family="noto_regular"  y="17"></text></g></g><g id="Lsx9JkD38s6"><mask id="93e68" x="-44" y="136" width="85" height="158" maskUnits="userSpaceOnUse"><rect x="-44" y="136" width="85" height="158" fill="white" /><rect x="14.895" y="207.8" width="24.21" height="24.4" fill="black" /></mask><g mask="url(#93e68)"><path d="M -30,280 L 17,280 Q 27,280 27,270 L 27,240 L 27,210 Q 27,209 26,200 Q 25,191 25,190 L 25,175 L 25,160 Q 25,150 15,150 L -20,150" fill="none" stroke="#7E7E7E" stroke-width="2" stroke-linecap="round" stroke-linejoin="round"/><path d="M -20,150 L -11.304347826086955,155.75 L -11.304347826086955,144.25 Z" fill="rgb(126,126,126)" stroke="#7E7E7E" stroke-width="2" stroke-linecap="round" stroke-linejoin="round"/></g><g transform="translate(17.895, 210.8)" width="18.21" height="18.4"><text text-decoration="none" x="0.10500000000000043" fill="#4b4b4b" font-size="10pt" font-family="noto_regular"  y="17">No</text><text text-decoration="none" x="18.105" fill="#4b4b4b" font-size="10pt" font-family="noto_regular"  y="17"></text></g></g><g id="pwHrereUlIz"><g transform="translate(-190 510)"><rect x="0" y="0" width="120" height="60" fill="rgb(131,48,74)" stroke="#530920" stroke-width="2" stroke-linecap="round" stroke-linejoin="round" stroke-dasharray="0 0"/></g><g transform="translate(-157.685, 521.6) rotate(0, 27.685, 18.4)" width="55.37" height="36.8"><text text-decoration="none" x="8.184999999999999" fill="#ffffff" font-size="10pt" font-family="noto_regular"  y="14">Online&#160;</text><text text-decoration="none" x="0.6849999999999987" fill="#ffffff" font-size="10pt" font-family="noto_regular"  y="36">Payment</text><text text-decoration="none" x="54.685" fill="#4b4b4b" font-size="10pt" font-family="noto_regular"  y="36"></text></g></g><g id="Rznr1bbdB7F"><g><path d="M -90,460 L -90,475 Q -90,485 -100,485 L -110,485 L -120,485 Q -130,485 -130,495 L -130,510" fill="none" stroke="#7E7E7E" stroke-width="2" stroke-linecap="round" stroke-linejoin="round"/><path d="M -130,510 L -124.25,501.30434782608694 L -135.75,501.30434782608694 Z" fill="rgb(126,126,126)" stroke="#7E7E7E" stroke-width="2" stroke-linecap="round" stroke-linejoin="round"/></g></g><g id="Yvew5lfhMoM"><g transform="translate(-40 510)"><rect x="0" y="0" width="120" height="60" fill="rgb(131,48,74)" stroke="#530920" stroke-width="2" stroke-linecap="round" stroke-linejoin="round" stroke-dasharray="0 0"/></g><g transform="translate(-28.840000000000003, 530.8) rotate(0, 48.84, 9.2)" width="97.68" height="18.4"><text text-decoration="none" x="2.8400000000000034" fill="#ffffff" font-size="10pt" font-family="noto_regular"  y="17">Cash&#160;</text><text text-decoration="none" x="34.84" fill="#ffffff" font-size="10pt" font-family="noto_regular"  y="17">on&#160;</text><text text-decoration="none" x="53.84" fill="#ffffff" font-size="10pt" font-family="noto_regular"  y="17">Deliver</text><text text-decoration="none" x="94.84" fill="#4b4b4b" font-size="10pt" font-family="noto_regular"  y="17"></text></g></g><g id="p609aqStaUK"><g><path d="M -90,460 L -90,475 Q -90,485 -80,485 L -35,485 L 10,485 Q 20,485 20,495 L 20,510" fill="none" stroke="#7E7E7E" stroke-width="2" stroke-linecap="round" stroke-linejoin="round"/><path d="M 20,510 L 25.75,501.30434782608694 L 14.25,501.30434782608694 Z" fill="rgb(126,126,126)" stroke="#7E7E7E" stroke-width="2" stroke-linecap="round" stroke-linejoin="round"/></g></g><g id="LshuugcLbd9"><g transform="translate(-150 640)"><rect x="0" y="0" width="120" height="60" fill="rgb(68,141,122)" stroke="#24afaf" stroke-width="2" stroke-linecap="round" stroke-linejoin="round" stroke-dasharray="0 0"/></g><g transform="translate(-130.855, 660.8) rotate(0, 40.855, 9.2)" width="81.71" height="18.4"><text text-decoration="none" x="2.354999999999997" fill="#ffffff" font-size="10pt" font-family="noto_regular"  y="17">Order&#160;</text><text text-decoration="none" x="40.355" fill="#ffffff" font-size="10pt" font-family="noto_regular"  y="17">Placed</text><text text-decoration="none" x="79.35499999999999" fill="#4b4b4b" font-size="10pt" font-family="noto_regular"  y="17"></text></g></g><g id="fXd9bBBqApH"><g><path d="M -130,570 L -130,595 Q -130,605 -120,605 L -110,605 L -100,605 Q -90,605 -90,615 L -90,640" fill="none" stroke="#7E7E7E" stroke-width="2" stroke-linecap="round" stroke-linejoin="round"/><path d="M -90,640 L -84.25,631.304347826087 L -95.75,631.304347826087 Z" fill="rgb(126,126,126)" stroke="#7E7E7E" stroke-width="2" stroke-linecap="round" stroke-linejoin="round"/></g></g><g id="ZpslCJDv1Nj"><g><path d="M 20,570 L 20.000000000000004,595 Q 20.000000000000004,605 10.000000000000004,605 L -35,605 L -80,605 Q -90,605 -90,615 L -90,640" fill="none" stroke="#7E7E7E" stroke-width="2" stroke-linecap="round" stroke-linejoin="round"/><path d="M -90,640 L -84.25,631.304347826087 L -95.75,631.304347826087 Z" fill="rgb(126,126,126)" stroke="#7E7E7E" stroke-width="2" stroke-linecap="round" stroke-linejoin="round"/></g></g><g id="1mipzZY3dKf"><g><path d="M -217,-150 L -217.49390244015794,660.000001859012 Q -217.5,670 -207.5,670 L -150,670" fill="none" stroke="#7E7E7E" stroke-width="2" stroke-linecap="round" stroke-linejoin="round"/><path d="M -150,670 L -158.69565217391303,664.25 L -158.69565217391303,675.75 Z" fill="rgb(126,126,126)" stroke="#7E7E7E" stroke-width="2" stroke-linecap="round" stroke-linejoin="round"/></g></g><g id="IQScjMxU89a"><g transform="translate(-160 730)"><rect x="0" y="0" width="140" height="60" fill="rgb(95,178,212)" stroke="#0979A7" stroke-width="2" stroke-linecap="round" stroke-linejoin="round"/></g><g transform="translate(-117.065, 750.8) rotate(0, 27.065, 9.2)" width="54.13" height="18.4"><text text-decoration="none" x="1.5650000000000013" fill="#ffffff" font-size="10pt" font-family="noto_regular"  y="17">Sign&#160;</text><text text-decoration="none" x="29.565" fill="#ffffff" font-size="10pt" font-family="noto_regular"  y="17">Out</text><text text-decoration="none" x="52.565" fill="#4b4b4b" font-size="10pt" font-family="noto_regular"  y="17"></text></g></g><g id="El6eCqpi3W3"><g transform="translate(-140 820)"><path d="M 20,40 L 20,40 L 20,40 A 20 20 0 0 1 0 20.000000000000004 L 0,20 L 0,20.000000000000004 A 20 20 0 0 1 20 0 L 80,0 L 80,0 L 80,0 A 20 20 0 0 1 100 20 L 100,20 L 100,20 A 20 20 0 0 1 80 40 L 20,40 Z" fill="rgb(208,94,86)" stroke="#f77474" stroke-width="2" stroke-linecap="round" stroke-linejoin="round"/></g><g transform="translate(-101.935, 830.8) rotate(0, 11.935, 9.2)" width="23.87" height="18.4"><text text-decoration="none" x="0.4350000000000005" fill="#ffffff" font-size="10pt" font-family="noto_regular"  y="17">End</text><text text-decoration="none" x="23.435000000000002" fill="#4b4b4b" font-size="10pt" font-family="noto_regular"  y="17"></text></g></g><g id="GmRQQqd4cGm"><g><path d="M -90,700 L -90,730" fill="none" stroke="#7E7E7E" stroke-width="2" stroke-linecap="round" stroke-linejoin="round"/><path d="M -90,730 L -84.25,721.304347826087 L -95.75,721.304347826087 Z" fill="rgb(126,126,126)" stroke="#7E7E7E" stroke-width="2" stroke-linecap="round" stroke-linejoin="round"/></g></g><g id="BDcP3nQcfdb"><g><path d="M -217,-150 L -217.49448271831275,746.2432427428085 Q -217.5,756.2432412207886 -207.50008947523236,756.2009387782873 L -160,756" fill="none" stroke="#7E7E7E" stroke-width="2" stroke-linecap="round" stroke-linejoin="round"/><path d="M -160,756 L -168.69565217391303,750.25 L -168.69565217391303,761.75 Z" fill="rgb(126,126,126)" stroke="#7E7E7E" stroke-width="2" stroke-linecap="round" stroke-linejoin="round"/></g></g><g id="kNpL4eVu9NQ"><g><path d="M -90,790 L -90,820" fill="none" stroke="#7E7E7E" stroke-width="2" stroke-linecap="round" stroke-linejoin="round"/><path d="M -90,820 L -84.25,811.304347826087 L -95.75,811.304347826087 Z" fill="rgb(126,126,126)" stroke="#7E7E7E" stroke-width="2" stroke-linecap="round" stroke-linejoin="round"/></g></g></svg>